<svg width="24" height="24" viewBox="0 0 24 24" fill="none" xmlns="http://www.w3.org/2000/svg">
<path d="M20.7111 17.2235H7.73579L4.97876 3.47009H23L20.7111 17.2235Z" stroke="black" stroke-width="2" stroke-linecap="round" stroke-linejoin="round"/>
<path d="M10.5959 23C10.9837 23 11.2981 22.6306 11.2981 22.1748C11.2981 21.7191 10.9837 21.3496 10.5959 21.3496C10.2082 21.3496 9.8938 21.7191 9.8938 22.1748C9.8938 22.6306 10.2082 23 10.5959 23Z" stroke="black" stroke-width="2" stroke-linecap="round" stroke-linejoin="round"/>
<path d="M17.6169 23C18.0047 23 18.3191 22.6306 18.3191 22.1748C18.3191 21.7191 18.0047 21.3496 17.6169 21.3496C17.2291 21.3496 16.9148 21.7191 16.9148 22.1748C16.9148 22.6306 17.2291 23 17.6169 23Z" stroke="black" stroke-width="2" stroke-linecap="round" stroke-linejoin="round"/>
<path d="M21.5957 10.3469H15.0425" stroke="black" stroke-width="2" stroke-linecap="round" stroke-linejoin="round"/>
<path d="M5.00682 3.56913L3.80384 2.16078C3.22413 1.47767 2.44737 1.07521 1.62725 1.03301L1 1" stroke="black" stroke-width="2" stroke-linecap="round" stroke-linejoin="round"/>
</svg>
